<svg width="270" height="53" viewBox="0 0 270 53" fill="none" xmlns="http://www.w3.org/2000/svg">
<path d="M63.8099 48.2966C75.7659 48.2966 85.4582 38.6043 85.4582 26.6483C85.4582 14.6923 75.7659 5 63.8099 5C51.8539 5 42.1616 14.6923 42.1616 26.6483C42.1616 38.6043 51.8539 48.2966 63.8099 48.2966Z" fill="#EE596B"/>
<path d="M67.2347 48.0283C66.1186 48.2055 64.9758 48.2985 63.811 48.2985C51.8546 48.2985 42.1616 38.6055 42.1616 26.6492C42.1616 14.6928 51.8546 5.00195 63.811 5.00195C64.9758 5.00195 66.1186 5.09495 67.2347 5.27212C56.9061 6.91322 49.0112 15.8577 49.0112 26.6492C49.0112 37.4407 56.9061 46.3874 67.2347 48.0283Z" fill="#ED3A4F"/>
<path d="M72.2279 29.0029C73.7032 29.0029 74.8991 27.0155 74.8991 24.564C74.8991 22.1124 73.7032 20.125 72.2279 20.125C70.7526 20.125 69.5566 22.1124 69.5566 24.564C69.5566 27.0155 70.7526 29.0029 72.2279 29.0029Z" fill="#21386B"/>
<path d="M55.3924 29.0029C56.8677 29.0029 58.0637 27.0155 58.0637 24.564C58.0637 22.1124 56.8677 20.125 55.3924 20.125C53.9171 20.125 52.7212 22.1124 52.7212 24.564C52.7212 27.0155 53.9171 29.0029 55.3924 29.0029Z" fill="#21386B"/>
<path d="M70.8815 36.7682C70.558 36.7682 70.236 36.6354 70.0037 36.3752C68.4288 34.6103 66.1713 33.5981 63.8101 33.5981C61.4489 33.5981 59.1913 34.6103 57.6165 36.3752C57.1839 36.8598 56.4405 36.902 55.956 36.4695C55.4714 36.0371 55.4291 35.2937 55.8617 34.8091C57.8824 32.5447 60.7793 31.2461 63.8101 31.2461C66.8408 31.2461 69.7379 32.5447 71.7585 34.8091C72.1911 35.2937 72.1486 36.0371 71.6641 36.4695C71.4399 36.6697 71.1602 36.7682 70.8815 36.7682V36.7682Z" fill="#21386B"/>
<path d="M43.4139 48.3923C55.3699 48.3923 65.0622 38.7 65.0622 26.744C65.0622 14.788 55.3699 5.0957 43.4139 5.0957C31.4579 5.0957 21.7656 14.788 21.7656 26.744C21.7656 38.7 31.4579 48.3923 43.4139 48.3923Z" fill="#F9DA41"/>
<path d="M46.8387 48.124C45.7226 48.3012 44.5798 48.3942 43.415 48.3942C31.4586 48.3942 21.7656 38.7012 21.7656 26.7449C21.7656 14.7885 31.4586 5.09766 43.415 5.09766C44.5798 5.09766 45.7226 5.19066 46.8387 5.36783C36.5101 7.00877 28.6153 15.9534 28.6153 26.7449C28.6153 37.5364 36.5101 46.4831 46.8387 48.124Z" fill="#EDC932"/>
<path d="M51.8628 19.8047C50.3844 19.8047 49.1816 21.8035 49.1816 24.2602C49.1816 26.717 50.3844 28.7158 51.8628 28.7158C53.3412 28.7158 54.5439 26.717 54.5439 24.2602C54.5439 21.8035 53.3413 19.8047 51.8628 19.8047Z" fill="#21386B"/>
<path d="M34.9643 19.8047C33.4859 19.8047 32.2832 21.8035 32.2832 24.2602C32.2832 26.717 33.4859 28.7158 34.9643 28.7158C36.4427 28.7158 37.6455 26.717 37.6455 24.2602C37.6455 21.8035 36.4427 19.8047 34.9643 19.8047Z" fill="#21386B"/>
<path d="M53.0419 34.2347H33.7863C33.1368 34.2347 32.6104 33.7082 32.6104 33.0588C32.6104 32.4093 33.1368 31.8828 33.7863 31.8828H53.0419C53.6914 31.8828 54.2178 32.4093 54.2178 33.0588C54.2178 33.7082 53.6914 34.2347 53.0419 34.2347Z" fill="#21386B"/>
<path d="M21.6483 48.8493C33.6043 48.8493 43.2966 39.157 43.2966 27.201C43.2966 15.245 33.6043 5.55273 21.6483 5.55273C9.69226 5.55273 0 15.245 0 27.201C0 39.157 9.69226 48.8493 21.6483 48.8493Z" fill="#78D0B1"/>
<path d="M25.0731 48.5811C23.957 48.7582 22.8142 48.8512 21.6493 48.8512C9.69301 48.8512 0 39.1582 0 27.2019C0 15.2456 9.69316 5.55469 21.6495 5.55469C22.8143 5.55469 23.9571 5.64769 25.0732 5.82486C14.7446 7.4658 6.84978 16.4104 6.84978 27.2019C6.84978 37.9934 14.7445 46.9401 25.0731 48.5811V48.5811Z" fill="#66B49D"/>
<path d="M29.8945 20.543C28.4515 20.543 27.2773 22.4938 27.2773 24.8918C27.2773 27.2899 28.4515 29.2407 29.8945 29.2407C31.3376 29.2407 32.5118 27.2899 32.5118 24.8918C32.5116 22.4938 31.3376 20.543 29.8945 20.543Z" fill="#21386B"/>
<path d="M13.4019 20.543C11.9588 20.543 10.7847 22.4938 10.7847 24.8918C10.7847 27.2899 11.9588 29.2407 13.4019 29.2407C14.8449 29.2407 16.0191 27.2899 16.0191 24.8918C16.0191 22.4938 14.8449 20.543 13.4019 20.543Z" fill="#21386B"/>
<path d="M21.6483 40.3792C17.4308 40.3792 13.6464 37.8669 12.0072 33.9789C11.755 33.3804 12.0355 32.6908 12.634 32.4384C13.2328 32.1862 13.9221 32.4667 14.1745 33.0652C15.4452 36.0795 18.3789 38.0273 21.6483 38.0273C24.9177 38.0273 27.8513 36.0795 29.1223 33.0652C29.3745 32.4667 30.0643 32.186 30.6628 32.4384C31.2612 32.6906 31.5419 33.3804 31.2895 33.9789C29.6503 37.8669 25.8658 40.3792 21.6483 40.3792V40.3792Z" fill="#21386B"/>
<path d="M95.5691 41V10.4545H111.975V11.4091H96.5237V25.25H110.544V26.2045H96.5237V41H95.5691ZM126.331 41.4773C124.332 41.4773 122.582 40.9553 121.081 39.9112C119.589 38.8672 118.431 37.4503 117.606 35.6605C116.78 33.8707 116.368 31.8523 116.368 29.6051C116.368 27.358 116.78 25.3395 117.606 23.5497C118.441 21.7599 119.574 20.343 121.006 19.299C122.438 18.255 124.054 17.733 125.854 17.733C127.186 17.733 128.419 18.0163 129.552 18.5831C130.696 19.1499 131.69 19.9354 132.535 20.9396C133.381 21.9439 134.037 23.1023 134.504 24.4148C134.981 25.7173 135.22 27.1094 135.22 28.5909V29.5455H116.845V28.5909H134.265C134.265 26.7514 133.888 25.0859 133.132 23.5945C132.376 22.093 131.362 20.8999 130.089 20.0149C128.817 19.13 127.405 18.6875 125.854 18.6875C124.283 18.6875 122.861 19.1548 121.588 20.0895C120.315 21.0241 119.296 22.2969 118.53 23.9077C117.765 25.5185 117.362 27.3381 117.322 29.3665V29.4858C117.322 31.4844 117.67 33.3239 118.366 35.0043C119.072 36.6747 120.096 38.0121 121.439 39.0163C122.781 40.0206 124.412 40.5227 126.331 40.5227C127.743 40.5227 128.926 40.2741 129.881 39.777C130.845 39.2798 131.616 38.7081 132.192 38.0618C132.779 37.4155 133.212 36.8636 133.49 36.4062L134.265 36.9432C133.927 37.5199 133.42 38.1612 132.744 38.8672C132.068 39.5732 131.203 40.1847 130.149 40.7017C129.095 41.2188 127.822 41.4773 126.331 41.4773ZM150.571 41.4773C148.572 41.4773 146.822 40.9553 145.321 39.9112C143.83 38.8672 142.671 37.4503 141.846 35.6605C141.021 33.8707 140.608 31.8523 140.608 29.6051C140.608 27.358 141.021 25.3395 141.846 23.5497C142.681 21.7599 143.815 20.343 145.246 19.299C146.678 18.255 148.294 17.733 150.094 17.733C151.426 17.733 152.659 18.0163 153.793 18.5831C154.936 19.1499 155.93 19.9354 156.776 20.9396C157.621 21.9439 158.277 23.1023 158.744 24.4148C159.222 25.7173 159.46 27.1094 159.46 28.5909V29.5455H141.085V28.5909H158.506C158.506 26.7514 158.128 25.0859 157.372 23.5945C156.617 22.093 155.602 20.8999 154.33 20.0149C153.057 19.13 151.645 18.6875 150.094 18.6875C148.523 18.6875 147.101 19.1548 145.828 20.0895C144.555 21.0241 143.536 22.2969 142.771 23.9077C142.005 25.5185 141.602 27.3381 141.563 29.3665V29.4858C141.563 31.4844 141.911 33.3239 142.607 35.0043C143.313 36.6747 144.337 38.0121 145.679 39.0163C147.021 40.0206 148.652 40.5227 150.571 40.5227C151.983 40.5227 153.166 40.2741 154.121 39.777C155.085 39.2798 155.856 38.7081 156.433 38.0618C157.019 37.4155 157.452 36.8636 157.73 36.4062L158.506 36.9432C158.168 37.5199 157.661 38.1612 156.984 38.8672C156.308 39.5732 155.443 40.1847 154.389 40.7017C153.335 41.2188 152.063 41.4773 150.571 41.4773ZM173.678 41.4773C171.868 41.4773 170.302 40.9602 168.98 39.9261C167.657 38.8821 166.638 37.4652 165.922 35.6754C165.206 33.8857 164.848 31.8622 164.848 29.6051C164.848 27.358 165.211 25.3395 165.937 23.5497C166.663 21.7599 167.687 20.343 169.009 19.299C170.332 18.255 171.888 17.733 173.678 17.733C174.891 17.733 176.009 17.9865 177.034 18.4936C178.058 18.9908 178.948 19.7067 179.703 20.6413C180.459 21.5661 181.036 22.6648 181.433 23.9375H181.553V10.4545H182.507V41H181.553V35.2727H181.433C181.016 36.5355 180.434 37.6342 179.688 38.5689C178.943 39.4936 178.058 40.2095 177.034 40.7166C176.019 41.2237 174.901 41.4773 173.678 41.4773ZM173.678 40.5227C175.299 40.5227 176.696 40.0455 177.869 39.0909C179.052 38.1264 179.962 36.8239 180.598 35.1832C181.235 33.5327 181.553 31.6733 181.553 29.6051C181.553 27.5369 181.23 25.6825 180.583 24.0419C179.947 22.3913 179.037 21.0888 177.854 20.1342C176.681 19.1697 175.289 18.6875 173.678 18.6875C172.067 18.6875 170.67 19.1697 169.487 20.1342C168.313 21.0888 167.404 22.3913 166.757 24.0419C166.121 25.6825 165.803 27.5369 165.803 29.6051C165.803 31.6733 166.121 33.5327 166.757 35.1832C167.394 36.8239 168.299 38.1264 169.472 39.0909C170.655 40.0455 172.057 40.5227 173.678 40.5227ZM189.92 41V10.4545H196.274V21.9389H196.468C196.746 21.3224 197.149 20.696 197.676 20.0597C198.213 19.4134 198.909 18.8764 199.764 18.4489C200.629 18.0114 201.703 17.7926 202.985 17.7926C204.656 17.7926 206.197 18.2301 207.609 19.1051C209.021 19.9702 210.149 21.2777 210.995 23.0277C211.84 24.7678 212.262 26.9503 212.262 29.5753C212.262 32.1307 211.85 34.2884 211.024 36.0483C210.209 37.7983 209.095 39.1257 207.683 40.0305C206.281 40.9254 204.71 41.3729 202.97 41.3729C201.737 41.3729 200.688 41.169 199.823 40.7614C198.968 40.3537 198.267 39.8416 197.72 39.2251C197.174 38.5987 196.756 37.9673 196.468 37.331H196.184V41H189.92ZM196.139 29.5455C196.139 30.9077 196.328 32.0959 196.706 33.1101C197.084 34.1243 197.631 34.9148 198.347 35.4815C199.063 36.0384 199.933 36.3168 200.957 36.3168C201.991 36.3168 202.866 36.0334 203.582 35.4666C204.298 34.8899 204.84 34.0945 205.208 33.0803C205.585 32.0561 205.774 30.8778 205.774 29.5455C205.774 28.223 205.59 27.0597 205.223 26.0554C204.855 25.0511 204.313 24.2656 203.597 23.6989C202.881 23.1321 202.001 22.8487 200.957 22.8487C199.923 22.8487 199.048 23.1222 198.332 23.669C197.626 24.2159 197.084 24.9915 196.706 25.9957C196.328 27 196.139 28.1832 196.139 29.5455ZM226.853 41.4474C224.536 41.4474 222.532 40.9553 220.842 39.9709C219.162 38.9766 217.864 37.5945 216.949 35.8246C216.034 34.0447 215.577 31.9815 215.577 29.6349C215.577 27.2685 216.034 25.2003 216.949 23.4304C217.864 21.6506 219.162 20.2685 220.842 19.2841C222.532 18.2898 224.536 17.7926 226.853 17.7926C229.169 17.7926 231.168 18.2898 232.848 19.2841C234.539 20.2685 235.841 21.6506 236.756 23.4304C237.671 25.2003 238.128 27.2685 238.128 29.6349C238.128 31.9815 237.671 34.0447 236.756 35.8246C235.841 37.5945 234.539 38.9766 232.848 39.9709C231.168 40.9553 229.169 41.4474 226.853 41.4474ZM226.883 36.5256C227.936 36.5256 228.816 36.2273 229.522 35.6307C230.228 35.0241 230.76 34.1989 231.118 33.1548C231.486 32.1108 231.67 30.9226 231.67 29.5902C231.67 28.2578 231.486 27.0696 231.118 26.0256C230.76 24.9815 230.228 24.1562 229.522 23.5497C228.816 22.9432 227.936 22.6399 226.883 22.6399C225.819 22.6399 224.924 22.9432 224.198 23.5497C223.482 24.1562 222.94 24.9815 222.572 26.0256C222.214 27.0696 222.035 28.2578 222.035 29.5902C222.035 30.9226 222.214 32.1108 222.572 33.1548C222.94 34.1989 223.482 35.0241 224.198 35.6307C224.924 36.2273 225.819 36.5256 226.883 36.5256ZM246.749 18.0909L250.955 26.1001L255.265 18.0909H261.783L255.146 29.5455L261.962 41H255.474L250.955 33.0803L246.51 41H239.948L246.749 29.5455L240.186 18.0909H246.749Z" fill="black"/>
</svg>
